<svg width="299" height="185" viewBox="0 0 299 185" fill="none" xmlns="http://www.w3.org/2000/svg">
<rect x="129" y="99" width="74" height="72" rx="15" fill="#432D2D"/>
<rect x="4" y="13" width="75" height="72" rx="15" fill="#432D2D"/>
<rect x="4" y="13" width="75" height="72" rx="15" fill="#432D2D"/>
<rect x="97" y="13" width="74" height="72" rx="15" fill="#D9D9D9"/>
<rect x="35" y="99" width="74" height="72" rx="15" fill="#D9D9D9"/>
<rect x="190" y="13" width="74" height="72" rx="15" fill="#D9D9D9"/>
<rect x="221" y="99" width="74" height="72" rx="15" fill="#D9D9D9"/>
<rect x="4" y="13" width="75" height="72" rx="15" fill="#432D2D"/>
<path d="M33.7922 50.96C32.8589 50.9867 32.2055 50.7333 31.8322 50.2C31.4589 49.6667 31.2722 48.76 31.2722 47.48V41.04C31.2722 40.1067 31.2055 39.3067 31.0722 38.64C30.9389 37.9467 30.8055 37.4667 30.6722 37.2C30.5922 37.04 30.5922 36.9067 30.6722 36.8C30.7522 36.6667 30.8589 36.6 30.9922 36.6C31.1789 36.6 31.5122 36.6133 31.9922 36.64C32.4722 36.6667 32.9789 36.6933 33.5122 36.72C34.4189 36.7467 35.5122 36.76 36.7922 36.76C38.0722 36.7333 39.4322 36.6933 40.8722 36.64C42.3389 36.5867 43.7655 36.5333 45.1522 36.48C46.7255 36.4267 48.0855 36.3467 49.2322 36.24C50.3789 36.1333 51.2989 36.04 51.9922 35.96C52.0722 35.96 52.1655 35.9733 52.2722 36C52.3789 36.0267 52.4455 36.1067 52.4722 36.24L52.5922 37.32C52.6189 37.4267 52.6322 37.5333 52.6322 37.64C52.6322 37.72 52.6322 37.8133 52.6322 37.92C52.6855 38.2133 52.5255 38.36 52.1522 38.36C51.4055 38.36 50.6855 38.3733 49.9922 38.4C49.2989 38.4 48.5655 38.4133 47.7922 38.44L33.7922 38.8V47C33.7922 47.8 33.8589 48.32 33.9922 48.56C34.1255 48.8 34.4055 48.9333 34.8322 48.96C35.4989 48.9867 36.3389 49 37.3522 49C38.3655 49 39.4189 48.9867 40.5122 48.96C41.6055 48.9333 42.6189 48.9067 43.5522 48.88C44.5122 48.8267 45.2455 48.7867 45.7522 48.76C47.1922 48.7067 48.4455 48.6267 49.5122 48.52C50.6055 48.4133 51.4855 48.2933 52.1522 48.16C52.4189 48.1067 52.5922 48.12 52.6722 48.2C52.7522 48.2533 52.8055 48.3467 52.8322 48.48C52.8855 48.7733 52.9122 49.0667 52.9122 49.36C52.9389 49.6267 52.9655 49.9333 52.9922 50.28C52.9922 50.44 52.9389 50.5467 52.8322 50.6C52.7522 50.6533 52.5255 50.68 52.1522 50.68C49.2989 50.68 46.2855 50.72 43.1122 50.8C39.9655 50.8533 36.8589 50.9067 33.7922 50.96ZM26.7922 63.36C26.4989 63.3867 26.2989 63.36 26.1922 63.28C26.0855 63.2 26.0055 63.08 25.9522 62.92C25.8455 62.6267 25.7522 62.3333 25.6722 62.04C25.5922 61.72 25.4989 61.3333 25.3922 60.88C25.3655 60.8267 25.3789 60.76 25.4322 60.68C25.4855 60.5733 25.5789 60.5333 25.7122 60.56C26.7255 60.6933 28.1122 60.7867 29.8722 60.84C31.6322 60.8667 33.5655 60.88 35.6722 60.88C36.5255 60.88 37.3922 60.88 38.2722 60.88C39.1789 60.88 40.0989 60.8667 41.0322 60.84V57.52C41.0322 56.48 40.9922 55.5733 40.9122 54.8C40.8322 54.0267 40.7389 53.5067 40.6322 53.24C40.5255 52.9733 40.6189 52.84 40.9122 52.84H43.3122C43.4722 52.84 43.5522 52.9467 43.5522 53.16C43.5522 53.1867 43.5522 53.2133 43.5522 53.24C43.4989 53.9333 43.4589 54.6 43.4322 55.24C43.4055 55.88 43.3922 56.5467 43.3922 57.24L43.3522 60.8C45.3789 60.7467 47.3255 60.68 49.1922 60.6C51.0589 60.4933 52.7389 60.3733 54.2322 60.24C55.7255 60.1067 56.8722 59.9733 57.6722 59.84C57.9389 59.7867 58.1122 59.8 58.1922 59.88C58.2722 59.96 58.3255 60.0667 58.3522 60.2L58.5922 62.12C58.5922 62.2533 58.5522 62.3733 58.4722 62.48C58.3922 62.5867 58.1789 62.64 57.8322 62.64C56.9255 62.6133 55.8722 62.6 54.6722 62.6C53.4722 62.6 52.1922 62.6 50.8322 62.6C47.4989 62.6 44.2722 62.64 41.1522 62.72C38.0322 62.7733 35.2322 62.8533 32.7522 62.96C30.2722 63.0667 28.2855 63.2 26.7922 63.36Z" fill="#D9D9D9"/>
<path d="M157.792 136.96C156.859 136.987 156.206 136.733 155.832 136.2C155.459 135.667 155.272 134.76 155.272 133.48V127.04C155.272 126.107 155.206 125.307 155.072 124.64C154.939 123.947 154.806 123.467 154.672 123.2C154.592 123.04 154.592 122.907 154.672 122.8C154.752 122.667 154.859 122.6 154.992 122.6C155.179 122.6 155.512 122.613 155.992 122.64C156.472 122.667 156.979 122.693 157.512 122.72C158.419 122.747 159.512 122.76 160.792 122.76C162.072 122.733 163.432 122.693 164.872 122.64C166.339 122.587 167.766 122.533 169.152 122.48C170.726 122.427 172.086 122.347 173.232 122.24C174.379 122.133 175.299 122.04 175.992 121.96C176.072 121.96 176.166 121.973 176.272 122C176.379 122.027 176.446 122.107 176.472 122.24L176.592 123.32C176.619 123.427 176.632 123.533 176.632 123.64C176.632 123.72 176.632 123.813 176.632 123.92C176.686 124.213 176.526 124.36 176.152 124.36C175.406 124.36 174.686 124.373 173.992 124.4C173.299 124.4 172.566 124.413 171.792 124.44L157.792 124.8V133C157.792 133.8 157.859 134.32 157.992 134.56C158.126 134.8 158.406 134.933 158.832 134.96C159.499 134.987 160.339 135 161.352 135C162.366 135 163.419 134.987 164.512 134.96C165.606 134.933 166.619 134.907 167.552 134.88C168.512 134.827 169.246 134.787 169.752 134.76C171.192 134.707 172.446 134.627 173.512 134.52C174.606 134.413 175.486 134.293 176.152 134.16C176.419 134.107 176.592 134.12 176.672 134.2C176.752 134.253 176.806 134.347 176.832 134.48C176.886 134.773 176.912 135.067 176.912 135.36C176.939 135.627 176.966 135.933 176.992 136.28C176.992 136.44 176.939 136.547 176.832 136.6C176.752 136.653 176.526 136.68 176.152 136.68C173.299 136.68 170.286 136.72 167.112 136.8C163.966 136.853 160.859 136.907 157.792 136.96ZM150.792 149.36C150.499 149.387 150.299 149.36 150.192 149.28C150.086 149.2 150.006 149.08 149.952 148.92C149.846 148.627 149.752 148.333 149.672 148.04C149.592 147.72 149.499 147.333 149.392 146.88C149.366 146.827 149.379 146.76 149.432 146.68C149.486 146.573 149.579 146.533 149.712 146.56C150.726 146.693 152.112 146.787 153.872 146.84C155.632 146.867 157.566 146.88 159.672 146.88C160.526 146.88 161.392 146.88 162.272 146.88C163.179 146.88 164.099 146.867 165.032 146.84V143.52C165.032 142.48 164.992 141.573 164.912 140.8C164.832 140.027 164.739 139.507 164.632 139.24C164.526 138.973 164.619 138.84 164.912 138.84H167.312C167.472 138.84 167.552 138.947 167.552 139.16C167.552 139.187 167.552 139.213 167.552 139.24C167.499 139.933 167.459 140.6 167.432 141.24C167.406 141.88 167.392 142.547 167.392 143.24L167.352 146.8C169.379 146.747 171.326 146.68 173.192 146.6C175.059 146.493 176.739 146.373 178.232 146.24C179.726 146.107 180.872 145.973 181.672 145.84C181.939 145.787 182.112 145.8 182.192 145.88C182.272 145.96 182.326 146.067 182.352 146.2L182.592 148.12C182.592 148.253 182.552 148.373 182.472 148.48C182.392 148.587 182.179 148.64 181.832 148.64C180.926 148.613 179.872 148.6 178.672 148.6C177.472 148.6 176.192 148.6 174.832 148.6C171.499 148.6 168.272 148.64 165.152 148.72C162.032 148.773 159.232 148.853 156.752 148.96C154.272 149.067 152.286 149.2 150.792 149.36Z" fill="#D9D9D9"/>
<path d="M118.757 55.76L117.877 54.84C117.77 54.7333 117.81 54.6 117.997 54.44C119.624 53.6667 121.237 52.6933 122.837 51.52C124.437 50.32 125.917 49.0133 127.277 47.6C128.637 46.16 129.77 44.68 130.677 43.16C131.584 41.64 132.144 40.1733 132.357 38.76C132.384 38.4667 132.277 38.32 132.037 38.32C130.89 38.3467 129.757 38.4 128.637 38.48C127.544 38.56 126.424 38.64 125.277 38.72C124.477 38.7733 123.664 38.84 122.837 38.92C122.037 39 121.21 39.08 120.357 39.16C120.09 39.1867 119.917 39.16 119.837 39.08C119.757 38.9733 119.69 38.8533 119.637 38.72C119.61 38.6933 119.597 38.6667 119.597 38.64C119.49 38.3467 119.41 38.1067 119.357 37.92C119.304 37.7067 119.224 37.3733 119.117 36.92C119.09 36.8667 119.104 36.8 119.157 36.72C119.21 36.64 119.304 36.6133 119.437 36.64C120.61 36.7467 121.877 36.8 123.237 36.8C124.597 36.7733 125.957 36.72 127.317 36.64C128.677 36.5333 129.944 36.4133 131.117 36.28C131.41 36.2267 131.744 36.1733 132.117 36.12C132.49 36.04 132.69 36 132.717 36C132.85 35.9467 132.997 35.9467 133.157 36C133.37 36.0533 133.65 36.16 133.997 36.32C134.344 36.4533 134.664 36.5867 134.957 36.72C135.25 36.8533 135.424 36.9333 135.477 36.96C135.744 37.0667 135.837 37.24 135.757 37.48C135.57 38.04 135.397 38.5467 135.237 39C135.077 39.4267 134.864 39.9467 134.597 40.56C134.037 41.9467 133.157 43.52 131.957 45.28C130.757 47.0133 129.184 48.8 127.237 50.64C125.29 52.4533 122.89 54.16 120.037 55.76C119.824 55.8933 119.61 55.9733 119.397 56C119.184 56.0267 118.97 55.9467 118.757 55.76ZM141.717 70C141.61 70 141.557 69.9333 141.557 69.8V59.28C141.557 59.0933 141.53 58.9733 141.477 58.92C141.45 58.8667 141.317 58.84 141.077 58.84C140.464 58.84 139.61 58.8533 138.517 58.88C137.424 58.9067 136.264 58.9467 135.037 59C133.81 59.0267 132.65 59.0667 131.557 59.12C130.49 59.1467 129.677 59.1733 129.117 59.2C128.45 59.2533 127.717 59.3067 126.917 59.36C126.144 59.4133 125.424 59.4667 124.757 59.52C124.49 59.5467 124.317 59.52 124.237 59.44C124.157 59.3333 124.09 59.2133 124.037 59.08C124.01 59.0533 123.997 59.0267 123.997 59L123.597 57.28C123.57 57.2267 123.584 57.16 123.637 57.08C123.69 57 123.784 56.9733 123.917 57C124.344 57.0533 125.117 57.0933 126.237 57.12C127.384 57.1467 128.69 57.16 130.157 57.16C131.624 57.1333 133.104 57.0933 134.597 57.04C136.09 56.9867 137.437 56.92 138.637 56.84C139.837 56.7333 140.704 56.6133 141.237 56.48C141.264 56.48 141.304 56.4667 141.357 56.44C141.41 56.44 141.464 56.44 141.517 56.44C141.57 56.4133 141.664 56.4133 141.797 56.44L144.157 56.8C144.29 56.8267 144.357 56.88 144.357 56.96C144.384 57.0133 144.397 57.0667 144.397 57.12C144.397 57.1467 144.397 57.16 144.397 57.16C144.317 57.9067 144.25 58.6667 144.197 59.44C144.17 60.2133 144.157 60.92 144.157 61.56L144.117 69.24C144.117 69.56 144.05 69.7467 143.917 69.8C143.81 69.8533 143.69 69.8933 143.557 69.92L141.717 70ZM141.877 54.16C141.77 54.16 141.717 54.0933 141.717 53.96V38.28C141.717 37.2667 141.677 36.3333 141.597 35.48C141.544 34.6267 141.45 34.0667 141.317 33.8C141.264 33.6667 141.264 33.5733 141.317 33.52C141.397 33.44 141.49 33.4 141.597 33.4C141.864 33.4 142.25 33.4 142.757 33.4C143.29 33.4 143.77 33.4133 144.197 33.44C144.33 33.44 144.397 33.5467 144.397 33.76C144.317 34.7467 144.264 35.6133 144.237 36.36C144.237 37.08 144.237 37.92 144.237 38.88V43.76C144.957 43.76 145.73 43.7333 146.557 43.68C147.41 43.6 148.197 43.52 148.917 43.44C149.664 43.3333 150.224 43.2267 150.597 43.12C150.837 43.0933 150.97 43.1733 150.997 43.36C151.05 43.7067 151.09 44.0533 151.117 44.4C151.144 44.7467 151.17 45.0933 151.197 45.44C151.197 45.7333 151.077 45.88 150.837 45.88C150.464 45.8267 149.89 45.8 149.117 45.8C148.344 45.7733 147.517 45.76 146.637 45.76C145.784 45.76 144.984 45.7867 144.237 45.84V53.16C144.237 53.56 144.21 53.8 144.157 53.88C144.13 53.96 144.05 54.0133 143.917 54.04L141.877 54.16Z" fill="#432D2D" fill-opacity="0.76"/>
<path d="M242.757 140.76L241.877 139.84C241.77 139.733 241.81 139.6 241.997 139.44C243.624 138.667 245.237 137.693 246.837 136.52C248.437 135.32 249.917 134.013 251.277 132.6C252.637 131.16 253.77 129.68 254.677 128.16C255.584 126.64 256.144 125.173 256.357 123.76C256.384 123.467 256.277 123.32 256.037 123.32C254.89 123.347 253.757 123.4 252.637 123.48C251.544 123.56 250.424 123.64 249.277 123.72C248.477 123.773 247.664 123.84 246.837 123.92C246.037 124 245.21 124.08 244.357 124.16C244.09 124.187 243.917 124.16 243.837 124.08C243.757 123.973 243.69 123.853 243.637 123.72C243.61 123.693 243.597 123.667 243.597 123.64C243.49 123.347 243.41 123.107 243.357 122.92C243.304 122.707 243.224 122.373 243.117 121.92C243.09 121.867 243.104 121.8 243.157 121.72C243.21 121.64 243.304 121.613 243.437 121.64C244.61 121.747 245.877 121.8 247.237 121.8C248.597 121.773 249.957 121.72 251.317 121.64C252.677 121.533 253.944 121.413 255.117 121.28C255.41 121.227 255.744 121.173 256.117 121.12C256.49 121.04 256.69 121 256.717 121C256.85 120.947 256.997 120.947 257.157 121C257.37 121.053 257.65 121.16 257.997 121.32C258.344 121.453 258.664 121.587 258.957 121.72C259.25 121.853 259.424 121.933 259.477 121.96C259.744 122.067 259.837 122.24 259.757 122.48C259.57 123.04 259.397 123.547 259.237 124C259.077 124.427 258.864 124.947 258.597 125.56C258.037 126.947 257.157 128.52 255.957 130.28C254.757 132.013 253.184 133.8 251.237 135.64C249.29 137.453 246.89 139.16 244.037 140.76C243.824 140.893 243.61 140.973 243.397 141C243.184 141.027 242.97 140.947 242.757 140.76ZM265.717 155C265.61 155 265.557 154.933 265.557 154.8V144.28C265.557 144.093 265.53 143.973 265.477 143.92C265.45 143.867 265.317 143.84 265.077 143.84C264.464 143.84 263.61 143.853 262.517 143.88C261.424 143.907 260.264 143.947 259.037 144C257.81 144.027 256.65 144.067 255.557 144.12C254.49 144.147 253.677 144.173 253.117 144.2C252.45 144.253 251.717 144.307 250.917 144.36C250.144 144.413 249.424 144.467 248.757 144.52C248.49 144.547 248.317 144.52 248.237 144.44C248.157 144.333 248.09 144.213 248.037 144.08C248.01 144.053 247.997 144.027 247.997 144L247.597 142.28C247.57 142.227 247.584 142.16 247.637 142.08C247.69 142 247.784 141.973 247.917 142C248.344 142.053 249.117 142.093 250.237 142.12C251.384 142.147 252.69 142.16 254.157 142.16C255.624 142.133 257.104 142.093 258.597 142.04C260.09 141.987 261.437 141.92 262.637 141.84C263.837 141.733 264.704 141.613 265.237 141.48C265.264 141.48 265.304 141.467 265.357 141.44C265.41 141.44 265.464 141.44 265.517 141.44C265.57 141.413 265.664 141.413 265.797 141.44L268.157 141.8C268.29 141.827 268.357 141.88 268.357 141.96C268.384 142.013 268.397 142.067 268.397 142.12C268.397 142.147 268.397 142.16 268.397 142.16C268.317 142.907 268.25 143.667 268.197 144.44C268.17 145.213 268.157 145.92 268.157 146.56L268.117 154.24C268.117 154.56 268.05 154.747 267.917 154.8C267.81 154.853 267.69 154.893 267.557 154.92L265.717 155ZM265.877 139.16C265.77 139.16 265.717 139.093 265.717 138.96V123.28C265.717 122.267 265.677 121.333 265.597 120.48C265.544 119.627 265.45 119.067 265.317 118.8C265.264 118.667 265.264 118.573 265.317 118.52C265.397 118.44 265.49 118.4 265.597 118.4C265.864 118.4 266.25 118.4 266.757 118.4C267.29 118.4 267.77 118.413 268.197 118.44C268.33 118.44 268.397 118.547 268.397 118.76C268.317 119.747 268.264 120.613 268.237 121.36C268.237 122.08 268.237 122.92 268.237 123.88V128.76C268.957 128.76 269.73 128.733 270.557 128.68C271.41 128.6 272.197 128.52 272.917 128.44C273.664 128.333 274.224 128.227 274.597 128.12C274.837 128.093 274.97 128.173 274.997 128.36C275.05 128.707 275.09 129.053 275.117 129.4C275.144 129.747 275.17 130.093 275.197 130.44C275.197 130.733 275.077 130.88 274.837 130.88C274.464 130.827 273.89 130.8 273.117 130.8C272.344 130.773 271.517 130.76 270.637 130.76C269.784 130.76 268.984 130.787 268.237 130.84V138.16C268.237 138.56 268.21 138.8 268.157 138.88C268.13 138.96 268.05 139.013 267.917 139.04L265.877 139.16Z" fill="#432D2D" fill-opacity="0.76"/>
<path d="M234.6 33.8L221.48 67.8H219.4L232.48 33.8H234.6Z" fill="#432D2D" fill-opacity="0.76"/>
</svg>
