<svg width="299" height="184" viewBox="0 0 299 184" fill="none" xmlns="http://www.w3.org/2000/svg">
<rect x="129" y="99" width="74" height="72" rx="15" fill="#432D2D"/>
<rect x="4" y="13" width="75" height="72" rx="15" fill="#432D2D"/>
<rect x="4" y="13" width="75" height="72" rx="15" fill="#432D2D"/>
<rect x="97" y="13" width="74" height="72" rx="15" fill="#D9D9D9"/>
<rect x="35" y="99" width="74" height="72" rx="15" fill="#D9D9D9"/>
<rect x="190" y="13" width="74" height="72" rx="15" fill="#D9D9D9"/>
<rect x="221" y="99" width="74" height="72" rx="15" fill="#D9D9D9"/>
<rect x="4" y="13" width="75" height="72" rx="15" fill="#432D2D"/>
<path d="M33.7922 50.96C32.8589 50.9867 32.2055 50.7333 31.8322 50.2C31.4589 49.6667 31.2722 48.76 31.2722 47.48V41.04C31.2722 40.1067 31.2055 39.3067 31.0722 38.64C30.9389 37.9467 30.8055 37.4667 30.6722 37.2C30.5922 37.04 30.5922 36.9067 30.6722 36.8C30.7522 36.6667 30.8589 36.6 30.9922 36.6C31.1789 36.6 31.5122 36.6133 31.9922 36.64C32.4722 36.6667 32.9789 36.6933 33.5122 36.72C34.4189 36.7467 35.5122 36.76 36.7922 36.76C38.0722 36.7333 39.4322 36.6933 40.8722 36.64C42.3389 36.5867 43.7655 36.5333 45.1522 36.48C46.7255 36.4267 48.0855 36.3467 49.2322 36.24C50.3789 36.1333 51.2989 36.04 51.9922 35.96C52.0722 35.96 52.1655 35.9733 52.2722 36C52.3789 36.0267 52.4455 36.1067 52.4722 36.24L52.5922 37.32C52.6189 37.4267 52.6322 37.5333 52.6322 37.64C52.6322 37.72 52.6322 37.8133 52.6322 37.92C52.6855 38.2133 52.5255 38.36 52.1522 38.36C51.4055 38.36 50.6855 38.3733 49.9922 38.4C49.2989 38.4 48.5655 38.4133 47.7922 38.44L33.7922 38.8V47C33.7922 47.8 33.8589 48.32 33.9922 48.56C34.1255 48.8 34.4055 48.9333 34.8322 48.96C35.4989 48.9867 36.3389 49 37.3522 49C38.3655 49 39.4189 48.9867 40.5122 48.96C41.6055 48.9333 42.6189 48.9067 43.5522 48.88C44.5122 48.8267 45.2455 48.7867 45.7522 48.76C47.1922 48.7067 48.4455 48.6267 49.5122 48.52C50.6055 48.4133 51.4855 48.2933 52.1522 48.16C52.4189 48.1067 52.5922 48.12 52.6722 48.2C52.7522 48.2533 52.8055 48.3467 52.8322 48.48C52.8855 48.7733 52.9122 49.0667 52.9122 49.36C52.9389 49.6267 52.9655 49.9333 52.9922 50.28C52.9922 50.44 52.9389 50.5467 52.8322 50.6C52.7522 50.6533 52.5255 50.68 52.1522 50.68C49.2989 50.68 46.2855 50.72 43.1122 50.8C39.9655 50.8533 36.8589 50.9067 33.7922 50.96ZM26.7922 63.36C26.4989 63.3867 26.2989 63.36 26.1922 63.28C26.0855 63.2 26.0055 63.08 25.9522 62.92C25.8455 62.6267 25.7522 62.3333 25.6722 62.04C25.5922 61.72 25.4989 61.3333 25.3922 60.88C25.3655 60.8267 25.3789 60.76 25.4322 60.68C25.4855 60.5733 25.5789 60.5333 25.7122 60.56C26.7255 60.6933 28.1122 60.7867 29.8722 60.84C31.6322 60.8667 33.5655 60.88 35.6722 60.88C36.5255 60.88 37.3922 60.88 38.2722 60.88C39.1789 60.88 40.0989 60.8667 41.0322 60.84V57.52C41.0322 56.48 40.9922 55.5733 40.9122 54.8C40.8322 54.0267 40.7389 53.5067 40.6322 53.24C40.5255 52.9733 40.6189 52.84 40.9122 52.84H43.3122C43.4722 52.84 43.5522 52.9467 43.5522 53.16C43.5522 53.1867 43.5522 53.2133 43.5522 53.24C43.4989 53.9333 43.4589 54.6 43.4322 55.24C43.4055 55.88 43.3922 56.5467 43.3922 57.24L43.3522 60.8C45.3789 60.7467 47.3255 60.68 49.1922 60.6C51.0589 60.4933 52.7389 60.3733 54.2322 60.24C55.7255 60.1067 56.8722 59.9733 57.6722 59.84C57.9389 59.7867 58.1122 59.8 58.1922 59.88C58.2722 59.96 58.3255 60.0667 58.3522 60.2L58.5922 62.12C58.5922 62.2533 58.5522 62.3733 58.4722 62.48C58.3922 62.5867 58.1789 62.64 57.8322 62.64C56.9255 62.6133 55.8722 62.6 54.6722 62.6C53.4722 62.6 52.1922 62.6 50.8322 62.6C47.4989 62.6 44.2722 62.64 41.1522 62.72C38.0322 62.7733 35.2322 62.8533 32.7522 62.96C30.2722 63.0667 28.2855 63.2 26.7922 63.36Z" fill="#D9D9D9"/>
<path d="M157.792 135.96C156.859 135.987 156.206 135.733 155.832 135.2C155.459 134.667 155.272 133.76 155.272 132.48V126.04C155.272 125.107 155.206 124.307 155.072 123.64C154.939 122.947 154.806 122.467 154.672 122.2C154.592 122.04 154.592 121.907 154.672 121.8C154.752 121.667 154.859 121.6 154.992 121.6C155.179 121.6 155.512 121.613 155.992 121.64C156.472 121.667 156.979 121.693 157.512 121.72C158.419 121.747 159.512 121.76 160.792 121.76C162.072 121.733 163.432 121.693 164.872 121.64C166.339 121.587 167.766 121.533 169.152 121.48C170.726 121.427 172.086 121.347 173.232 121.24C174.379 121.133 175.299 121.04 175.992 120.96C176.072 120.96 176.166 120.973 176.272 121C176.379 121.027 176.446 121.107 176.472 121.24L176.592 122.32C176.619 122.427 176.632 122.533 176.632 122.64C176.632 122.72 176.632 122.813 176.632 122.92C176.686 123.213 176.526 123.36 176.152 123.36C175.406 123.36 174.686 123.373 173.992 123.4C173.299 123.4 172.566 123.413 171.792 123.44L157.792 123.8V132C157.792 132.8 157.859 133.32 157.992 133.56C158.126 133.8 158.406 133.933 158.832 133.96C159.499 133.987 160.339 134 161.352 134C162.366 134 163.419 133.987 164.512 133.96C165.606 133.933 166.619 133.907 167.552 133.88C168.512 133.827 169.246 133.787 169.752 133.76C171.192 133.707 172.446 133.627 173.512 133.52C174.606 133.413 175.486 133.293 176.152 133.16C176.419 133.107 176.592 133.12 176.672 133.2C176.752 133.253 176.806 133.347 176.832 133.48C176.886 133.773 176.912 134.067 176.912 134.36C176.939 134.627 176.966 134.933 176.992 135.28C176.992 135.44 176.939 135.547 176.832 135.6C176.752 135.653 176.526 135.68 176.152 135.68C173.299 135.68 170.286 135.72 167.112 135.8C163.966 135.853 160.859 135.907 157.792 135.96ZM150.792 148.36C150.499 148.387 150.299 148.36 150.192 148.28C150.086 148.2 150.006 148.08 149.952 147.92C149.846 147.627 149.752 147.333 149.672 147.04C149.592 146.72 149.499 146.333 149.392 145.88C149.366 145.827 149.379 145.76 149.432 145.68C149.486 145.573 149.579 145.533 149.712 145.56C150.726 145.693 152.112 145.787 153.872 145.84C155.632 145.867 157.566 145.88 159.672 145.88C160.526 145.88 161.392 145.88 162.272 145.88C163.179 145.88 164.099 145.867 165.032 145.84V142.52C165.032 141.48 164.992 140.573 164.912 139.8C164.832 139.027 164.739 138.507 164.632 138.24C164.526 137.973 164.619 137.84 164.912 137.84H167.312C167.472 137.84 167.552 137.947 167.552 138.16C167.552 138.187 167.552 138.213 167.552 138.24C167.499 138.933 167.459 139.6 167.432 140.24C167.406 140.88 167.392 141.547 167.392 142.24L167.352 145.8C169.379 145.747 171.326 145.68 173.192 145.6C175.059 145.493 176.739 145.373 178.232 145.24C179.726 145.107 180.872 144.973 181.672 144.84C181.939 144.787 182.112 144.8 182.192 144.88C182.272 144.96 182.326 145.067 182.352 145.2L182.592 147.12C182.592 147.253 182.552 147.373 182.472 147.48C182.392 147.587 182.179 147.64 181.832 147.64C180.926 147.613 179.872 147.6 178.672 147.6C177.472 147.6 176.192 147.6 174.832 147.6C171.499 147.6 168.272 147.64 165.152 147.72C162.032 147.773 159.232 147.853 156.752 147.96C154.272 148.067 152.286 148.2 150.792 148.36Z" fill="#D9D9D9"/>
<path d="M121.757 55.76L120.877 54.84C120.77 54.7333 120.81 54.6 120.997 54.44C122.624 53.6667 124.237 52.6933 125.837 51.52C127.437 50.32 128.917 49.0133 130.277 47.6C131.637 46.16 132.77 44.68 133.677 43.16C134.584 41.64 135.144 40.1733 135.357 38.76C135.384 38.4667 135.277 38.32 135.037 38.32C133.89 38.3467 132.757 38.4 131.637 38.48C130.544 38.56 129.424 38.64 128.277 38.72C127.477 38.7733 126.664 38.84 125.837 38.92C125.037 39 124.21 39.08 123.357 39.16C123.09 39.1867 122.917 39.16 122.837 39.08C122.757 38.9733 122.69 38.8533 122.637 38.72C122.61 38.6933 122.597 38.6667 122.597 38.64C122.49 38.3467 122.41 38.1067 122.357 37.92C122.304 37.7067 122.224 37.3733 122.117 36.92C122.09 36.8667 122.104 36.8 122.157 36.72C122.21 36.64 122.304 36.6133 122.437 36.64C123.61 36.7467 124.877 36.8 126.237 36.8C127.597 36.7733 128.957 36.72 130.317 36.64C131.677 36.5333 132.944 36.4133 134.117 36.28C134.41 36.2267 134.744 36.1733 135.117 36.12C135.49 36.04 135.69 36 135.717 36C135.85 35.9467 135.997 35.9467 136.157 36C136.37 36.0533 136.65 36.16 136.997 36.32C137.344 36.4533 137.664 36.5867 137.957 36.72C138.25 36.8533 138.424 36.9333 138.477 36.96C138.744 37.0667 138.837 37.24 138.757 37.48C138.57 38.04 138.397 38.5467 138.237 39C138.077 39.4267 137.864 39.9467 137.597 40.56C137.037 41.9467 136.157 43.52 134.957 45.28C133.757 47.0133 132.184 48.8 130.237 50.64C128.29 52.4533 125.89 54.16 123.037 55.76C122.824 55.8933 122.61 55.9733 122.397 56C122.184 56.0267 121.97 55.9467 121.757 55.76ZM144.717 70C144.61 70 144.557 69.9333 144.557 69.8V59.28C144.557 59.0933 144.53 58.9733 144.477 58.92C144.45 58.8667 144.317 58.84 144.077 58.84C143.464 58.84 142.61 58.8533 141.517 58.88C140.424 58.9067 139.264 58.9467 138.037 59C136.81 59.0267 135.65 59.0667 134.557 59.12C133.49 59.1467 132.677 59.1733 132.117 59.2C131.45 59.2533 130.717 59.3067 129.917 59.36C129.144 59.4133 128.424 59.4667 127.757 59.52C127.49 59.5467 127.317 59.52 127.237 59.44C127.157 59.3333 127.09 59.2133 127.037 59.08C127.01 59.0533 126.997 59.0267 126.997 59L126.597 57.28C126.57 57.2267 126.584 57.16 126.637 57.08C126.69 57 126.784 56.9733 126.917 57C127.344 57.0533 128.117 57.0933 129.237 57.12C130.384 57.1467 131.69 57.16 133.157 57.16C134.624 57.1333 136.104 57.0933 137.597 57.04C139.09 56.9867 140.437 56.92 141.637 56.84C142.837 56.7333 143.704 56.6133 144.237 56.48C144.264 56.48 144.304 56.4667 144.357 56.44C144.41 56.44 144.464 56.44 144.517 56.44C144.57 56.4133 144.664 56.4133 144.797 56.44L147.157 56.8C147.29 56.8267 147.357 56.88 147.357 56.96C147.384 57.0133 147.397 57.0667 147.397 57.12C147.397 57.1467 147.397 57.16 147.397 57.16C147.317 57.9067 147.25 58.6667 147.197 59.44C147.17 60.2133 147.157 60.92 147.157 61.56L147.117 69.24C147.117 69.56 147.05 69.7467 146.917 69.8C146.81 69.8533 146.69 69.8933 146.557 69.92L144.717 70ZM144.877 54.16C144.77 54.16 144.717 54.0933 144.717 53.96V38.28C144.717 37.2667 144.677 36.3333 144.597 35.48C144.544 34.6267 144.45 34.0667 144.317 33.8C144.264 33.6667 144.264 33.5733 144.317 33.52C144.397 33.44 144.49 33.4 144.597 33.4C144.864 33.4 145.25 33.4 145.757 33.4C146.29 33.4 146.77 33.4133 147.197 33.44C147.33 33.44 147.397 33.5467 147.397 33.76C147.317 34.7467 147.264 35.6133 147.237 36.36C147.237 37.08 147.237 37.92 147.237 38.88V43.76C147.957 43.76 148.73 43.7333 149.557 43.68C150.41 43.6 151.197 43.52 151.917 43.44C152.664 43.3333 153.224 43.2267 153.597 43.12C153.837 43.0933 153.97 43.1733 153.997 43.36C154.05 43.7067 154.09 44.0533 154.117 44.4C154.144 44.7467 154.17 45.0933 154.197 45.44C154.197 45.7333 154.077 45.88 153.837 45.88C153.464 45.8267 152.89 45.8 152.117 45.8C151.344 45.7733 150.517 45.76 149.637 45.76C148.784 45.76 147.984 45.7867 147.237 45.84V53.16C147.237 53.56 147.21 53.8 147.157 53.88C147.13 53.96 147.05 54.0133 146.917 54.04L144.877 54.16Z" fill="#432D2D" fill-opacity="0.76"/>
<path d="M241.757 140.76L240.877 139.84C240.77 139.733 240.81 139.6 240.997 139.44C242.624 138.667 244.237 137.693 245.837 136.52C247.437 135.32 248.917 134.013 250.277 132.6C251.637 131.16 252.77 129.68 253.677 128.16C254.584 126.64 255.144 125.173 255.357 123.76C255.384 123.467 255.277 123.32 255.037 123.32C253.89 123.347 252.757 123.4 251.637 123.48C250.544 123.56 249.424 123.64 248.277 123.72C247.477 123.773 246.664 123.84 245.837 123.92C245.037 124 244.21 124.08 243.357 124.16C243.09 124.187 242.917 124.16 242.837 124.08C242.757 123.973 242.69 123.853 242.637 123.72C242.61 123.693 242.597 123.667 242.597 123.64C242.49 123.347 242.41 123.107 242.357 122.92C242.304 122.707 242.224 122.373 242.117 121.92C242.09 121.867 242.104 121.8 242.157 121.72C242.21 121.64 242.304 121.613 242.437 121.64C243.61 121.747 244.877 121.8 246.237 121.8C247.597 121.773 248.957 121.72 250.317 121.64C251.677 121.533 252.944 121.413 254.117 121.28C254.41 121.227 254.744 121.173 255.117 121.12C255.49 121.04 255.69 121 255.717 121C255.85 120.947 255.997 120.947 256.157 121C256.37 121.053 256.65 121.16 256.997 121.32C257.344 121.453 257.664 121.587 257.957 121.72C258.25 121.853 258.424 121.933 258.477 121.96C258.744 122.067 258.837 122.24 258.757 122.48C258.57 123.04 258.397 123.547 258.237 124C258.077 124.427 257.864 124.947 257.597 125.56C257.037 126.947 256.157 128.52 254.957 130.28C253.757 132.013 252.184 133.8 250.237 135.64C248.29 137.453 245.89 139.16 243.037 140.76C242.824 140.893 242.61 140.973 242.397 141C242.184 141.027 241.97 140.947 241.757 140.76ZM264.717 155C264.61 155 264.557 154.933 264.557 154.8V144.28C264.557 144.093 264.53 143.973 264.477 143.92C264.45 143.867 264.317 143.84 264.077 143.84C263.464 143.84 262.61 143.853 261.517 143.88C260.424 143.907 259.264 143.947 258.037 144C256.81 144.027 255.65 144.067 254.557 144.12C253.49 144.147 252.677 144.173 252.117 144.2C251.45 144.253 250.717 144.307 249.917 144.36C249.144 144.413 248.424 144.467 247.757 144.52C247.49 144.547 247.317 144.52 247.237 144.44C247.157 144.333 247.09 144.213 247.037 144.08C247.01 144.053 246.997 144.027 246.997 144L246.597 142.28C246.57 142.227 246.584 142.16 246.637 142.08C246.69 142 246.784 141.973 246.917 142C247.344 142.053 248.117 142.093 249.237 142.12C250.384 142.147 251.69 142.16 253.157 142.16C254.624 142.133 256.104 142.093 257.597 142.04C259.09 141.987 260.437 141.92 261.637 141.84C262.837 141.733 263.704 141.613 264.237 141.48C264.264 141.48 264.304 141.467 264.357 141.44C264.41 141.44 264.464 141.44 264.517 141.44C264.57 141.413 264.664 141.413 264.797 141.44L267.157 141.8C267.29 141.827 267.357 141.88 267.357 141.96C267.384 142.013 267.397 142.067 267.397 142.12C267.397 142.147 267.397 142.16 267.397 142.16C267.317 142.907 267.25 143.667 267.197 144.44C267.17 145.213 267.157 145.92 267.157 146.56L267.117 154.24C267.117 154.56 267.05 154.747 266.917 154.8C266.81 154.853 266.69 154.893 266.557 154.92L264.717 155ZM264.877 139.16C264.77 139.16 264.717 139.093 264.717 138.96V123.28C264.717 122.267 264.677 121.333 264.597 120.48C264.544 119.627 264.45 119.067 264.317 118.8C264.264 118.667 264.264 118.573 264.317 118.52C264.397 118.44 264.49 118.4 264.597 118.4C264.864 118.4 265.25 118.4 265.757 118.4C266.29 118.4 266.77 118.413 267.197 118.44C267.33 118.44 267.397 118.547 267.397 118.76C267.317 119.747 267.264 120.613 267.237 121.36C267.237 122.08 267.237 122.92 267.237 123.88V128.76C267.957 128.76 268.73 128.733 269.557 128.68C270.41 128.6 271.197 128.52 271.917 128.44C272.664 128.333 273.224 128.227 273.597 128.12C273.837 128.093 273.97 128.173 273.997 128.36C274.05 128.707 274.09 129.053 274.117 129.4C274.144 129.747 274.17 130.093 274.197 130.44C274.197 130.733 274.077 130.88 273.837 130.88C273.464 130.827 272.89 130.8 272.117 130.8C271.344 130.773 270.517 130.76 269.637 130.76C268.784 130.76 267.984 130.787 267.237 130.84V138.16C267.237 138.56 267.21 138.8 267.157 138.88C267.13 138.96 267.05 139.013 266.917 139.04L264.877 139.16Z" fill="#432D2D" fill-opacity="0.76"/>
<path d="M234.6 33.8L221.48 67.8H219.4L232.48 33.8H234.6Z" fill="#432D2D" fill-opacity="0.76"/>
</svg>
